<svg version="1.1" id="Layer_1" xmlns="http://www.w3.org/2000/svg" xmlns:xlink="http://www.w3.org/1999/xlink" x="0px" y="0px"
	 viewBox="0 0 726.5 760.6" style="enable-background:new 0 0 726.5 760.6;" xml:space="preserve">
<style type="text/css">
	.st0{fill:#7EB3FF;}
	.st1{fill:#FEC12F;}
	.st2{fill:#212957;}
	.st3{fill:#DD000B;}
	.st4{fill:#F7B68B;}
	.st5{fill:#EC9568;}
	.st6{fill:#FD2227;}
	.st7{fill:#3B47BC;}
	.st8{fill:none;stroke:#8DCFFF;stroke-width:0.7999;stroke-miterlimit:10;}
	.st9{fill:#F0BF97;}
	.st10{fill:#B0BFDE;}
	.st11{fill:#161711;}
	.st12{fill:#D1DBEA;}
	.st13{fill:#163F59;}
	.st14{fill:#194866;}
	.st15{fill:#AD5C49;}
	.st16{fill:#0561FC;}
	.st17{fill:#73A9FF;}
</style>
<g>
	<g>
		<path class="st0" d="M591.1,489.1c-5.2,1.5-9,6.2-9,12c0,3.9,1.9,7.4,4.8,9.7c9.9,7.7,16.3,19.7,16.4,33.2
			c0.1,23.2-18.5,42.1-41.6,42.1c-23,0-41.8-18.7-41.9-41.9c0-13.5,6.3-25.6,16.1-33.3c2.8-2.3,4.7-5.8,4.7-9.7
			c0-5.7-3.8-10.4-9-11.9l-97.5,0.2l0.3,96.1c0.7,6.3,5.9,11.2,12.3,11.2c3.9,0,7.4-1.9,9.6-4.8c7.6-10,19.5-16.4,32.9-16.4
			c23,0,41.8,18.7,41.9,42c0.1,23.2-18.6,42.1-41.6,42.1c-13.5,0-25.4-6.4-33.1-16.3c-2.3-2.9-5.7-4.7-9.6-4.7
			c-6.4,0-11.6,5-12.2,11.2l0.3,96.1l254.5-0.5l-0.9-256.4L591.1,489.1z"/>
	</g>
	<path class="st1" d="M436,744.7v-95h0c0.5-6.4,5.8-11.5,12.3-11.5c3.9,0,7.4,1.9,9.6,4.7c7.6,9.9,19.6,16.3,33,16.3
		c23,0,41.7-18.7,41.7-41.7c0-23-18.7-41.7-41.7-41.7c-13.4,0-25.4,6.4-33,16.2c-2.3,2.8-5.7,4.7-9.6,4.7c-6.5,0-11.8-5.1-12.3-11.5
		h0v-95h-95.4c-6.2-0.7-11.1-5.8-11.1-12.3c0-3.9,1.9-7.3,4.7-9.6c9.9-7.6,16.3-19.6,16.3-33c0-23.1-18.7-41.7-41.7-41.7
		c-23,0-41.7,18.7-41.7,41.7c0,13.4,6.4,25.4,16.3,33c2.8,2.3,4.7,5.7,4.7,9.6c0,6.4-4.9,11.6-11.1,12.3h-95.4v254.5H436z"/>
	<g>
		<path class="st2" d="M611.1,355c0,0,18-16.3,4.4-42.6c-7.6-14.5-3.3-54.1,21.4-41.6c24.7,12.4,18.1-2.9,32,4
			c13.9,6.9,20.1,17.2,18.1,28.4c-2,11.2-0.9,32.6,7.7,36.7c8.6,4.2,49.6,27.4,22.9,56.2C690.8,425,594.5,403.1,611.1,355z"/>
		<path class="st3" d="M652.2,355.7c0,0-1.9-7.9-11-9.9c-9-2-69.6-9.1-69.6-9.1s1,1.9,0.7,12.9c-0.3,11.1,12.9,21.5,33.1,20.5
			C625.7,369,655.6,360.2,652.2,355.7z"/>
		<path class="st2" d="M592.9,608.2c0,0-0.7,6.9-0.7,9c0,2.1,4.6,8.2,5,9.9c0.4,1.8,0.4,1.8,0.4,1.8h-34.8c0,0-0.7-3.5,5-8.2
			c5.7-4.6,7.4-7.8,8.2-13.7C576.6,601.2,592.9,608.2,592.9,608.2z"/>
		<path class="st4" d="M657.1,316.1c0,0-4.3,20.7-1.6,28c2.7,7.4-18.9,1.7-18.9,1.7s1-17,1.5-20.7
			C638.7,321.5,657.1,316.1,657.1,316.1z"/>
		<path class="st5" d="M638.2,325.2c0.5-3.7,18.9-9.1,18.9-9.1s-13.5,19.3-18.1,19.7c-0.6,0-1.2,0-1.7,0
			C637.7,331.3,638,326.8,638.2,325.2z"/>
		<path class="st4" d="M626.9,295.2c0,0-1.5,18.8,0.8,24.4c2.3,5.5,3.2,9.7,8.7,9.3c5.5-0.4,14.3-8.6,19.4-11.8
			c5.1-3.2,8.8-6.8,7-11.5c-1.8-4.6-4.1-0.9-4.1,0.4c0,1.4-14.3,3.6-25.3-3.4C630.6,300.8,626.4,297.9,626.9,295.2z"/>
		<path class="st6" d="M654.2,343.2l-18.9,2.2c0,0-21.3,21.9-25.9,22.8c-4.6,0.9,5.8,64.6,4.6,71.4c-0.6,3.7,12.6,17,21.3,20.1
			c23.9,8.5,27.7-6.9,27.7-6.9s-10.2-34.2-6.9-49.3c3.3-15.2,17.6-26.6,14.5-37.2C667.5,355.7,676.7,355.8,654.2,343.2z"/>
		<path class="st3" d="M667.5,355.7c0,0-5.2,14.2-4.3,23.4c0.9,9.2,3.5,31.8,3.5,31.8s5.4,26.3,16,23.1c10.6-3.2,9.9-33.1,2.6-52
			C678,363.1,670.7,351.1,667.5,355.7z"/>
		<path class="st2" d="M601.7,399.5l13.5-0.7c1.5-0.1,2.2-1.4,1.6-2.9l-12.6-30c-0.6-1.5-2.4-2.7-3.9-2.6l-13.5,0.7
			c-1.5,0.1-2.2,1.4-1.6,2.9l12.6,30C598.4,398.4,600.1,399.6,601.7,399.5z"/>
		<path class="st4" d="M688,424.9c0,0-0.5,5.3-0.5,6.4c0,1.1-5.1,2.5-10.4,2.5c-5.3,0-44.2-22.8-47.9-24.5c-3.7-1.6-12.2-4-14.2-4.2
			c-2.1-0.2-3.6-6-2.5-9.7c0.8-2.4,1.6-4.6,2.7-5.2c0.6-0.4,1.3-0.3,2.1,0.2c2.5,1.6,12.6,10.4,12.6,10.4s23.7,4.5,33.1,8.7
			C672.4,413.8,683.4,418.9,688,424.9z"/>
		<path class="st5" d="M603.1,391.7l12.1-1.5l-2.7,5.2l1.6,8.1l-6.7,1.1c0,0-0.9-1.2,0.2-1.6c1.2-0.5,2.8-1.1,2.8-1.1
			s-3.2-0.5-4.6-0.7c-1.4-0.2-1.6-0.7-1.6-1.4c0-0.7,1.4-1.1,1.4-1.1s-2.5-0.9-2.7-1.6c-0.2-0.7-0.7-1.6-0.2-2.3
			C603.1,394,602.4,392.1,603.1,391.7z"/>
		<path class="st2" d="M493,447l26.6-94.7c0,0,7.4-22.3,21.3-7.4c13.8,14.9,86.2,106.4,86.2,106.4s-24.5,43.6-40.4,41.5
			c-16-2.1-52.1-95.8-52.1-100c0-4.3,3.1,14.4-4.3,34c-9.6,25.5-24.5,59.6-24.5,59.6l-21.3-2.1L493,447z"/>
		<path class="st7" d="M662.5,453.3c0,0-36.2-10.6-47.3-15.4c-11.2-4.8-44.7-23.9-47.9,0c-3.2,23.9,6.4,166,6.4,166h27.1l9.6-114.9
			C610.4,489,678.5,515.1,662.5,453.3z"/>
		<path class="st8" d="M659.3,457.1c0,0-4.3,12.8-20.2,10.6c-16-2.1-40.4-17.6-40.4-17.6l-5.3,145.8"/>
		<path class="st2" d="M505.7,481.5l-1.1,13.8l-52.4-1.1c0,0-6.9-4.5,19.4-8.5c7.1-1.1,13.3-6.1,13.3-6.1L505.7,481.5z"/>
		<g>
			<path class="st5" d="M583.8,360.4l-54.5-16.6c0,0-4-7.5,2.7-7.3c6.7,0.3,47.6,4.3,47.6,4.3S604.7,356.2,583.8,360.4z"/>
			<g>
				<path class="st9" d="M522.2,349.9l-0.8,9.6l1.2,11.9c0,0,1.6-0.2,2-2.6c0.3-2.4,0.4-10.2,0.4-10.2l0.9-4.8l0.2-1
					C526,352.8,525.8,347.7,522.2,349.9z"/>
				<path class="st9" d="M524.6,354.1c0,0,1.7-2,2.3-1.8c0.6,0.2,0.6,1.5,0.9,3c0.3,1.6,1,6.3,1,6.3l2,6.4c0,0,1.3-2.2,1.4-3.3
					c0.1-1.5-0.3-4.9-0.3-4.9l-0.3-7.5c0,0-0.9-5.3-1.9-4.9c-0.9,0.4-1.5,1.7-2.6,1.4C526.1,348.7,523.3,348.7,524.6,354.1z"/>
				<path class="st9" d="M533.4,354.7l0.6,4.8c0,0,1.2,5,1.7,4.8c0.5-0.2,0.5-0.2,0.5-0.2s0.1-1.5,0.1-3.4c0-0.7-0.2-3.9-0.2-4.6
					c-0.3-2.8,0.3-6.1,0.2-6.5C536.1,349.2,532.8,346.1,533.4,354.7z"/>
				<path class="st9" d="M521,347.9l-5.1,5.6l-2.2,9.7c0,0,1.8-0.2,3-3.1c1.2-2.9,1.4-3.1,1.4-3.6c0-0.5,4.2-3.3,4.2-3.3
					S522.3,346.9,521,347.9z"/>
				<path class="st9" d="M527,350l-5.9,0.8c0,0-1.8-1.8,1.5-5.3c3.3-3.6,5.9-7.3,5.9-7.3s2.9-1.4,4.4,0s4,3.5,4.4,6.5
					c0.4,3-1.1,6.4-1.6,7.5c-0.6,1.2-1.7-0.5-2.7-0.6c-1.2-0.2-2.3,1.1-3,0.7C528.5,351.6,527,350,527,350z"/>
			</g>
			<path class="st9" d="M534.8,340.9c0,0,3,2.4,4.9,4.8c1.9,2.3,3.7,7.5,3.7,7.5s-3.3,0.2-4.1-0.4c-0.8-0.6-1.6-2.8-3.5-4.3
				c-1.3-1.1-2.2,2.1-2.6,1.3C531.2,346.3,531.4,339.3,534.8,340.9z"/>
		</g>
	</g>
	<g>
		<g>
			<g>
				<path class="st4" d="M414.8,242.9l18.5-68.5c0,0-35.2,40.1-36.5,62.8C395.6,259.8,414.8,242.9,414.8,242.9z"/>
				<path class="st4" d="M222,254.6l-54.8-37.7c0,0,27.7,47.3,41.2,56.2C222,281.8,222,254.6,222,254.6z"/>
				<g>
					<path class="st4" d="M177.7,225.1c0,0,4.6-11.2,2.9-14.2c-1.7-3-8.6-13.6-8.6-13.6l-2-2.5c0,0-4.1,0.6,0.7,7.7
						c4.7,7.1,0.5,4.9,0.5,4.9l-6.7-4.8l-8.7-5.3l-3.6-2.8c0,0-1.9-1.7-2.7-1.8c-2.3-0.1-1.5,1.7-1.5,1.7l12.9,12.1l-15-8
						c0,0-2.1-0.7-2.8,0.2c-0.7,0.8-0.1,1.2-0.1,1.2l14.8,13l-8.2-3.3c0,0-2.1-0.6-2.8,0.2c-0.8,0.9-1.1,1.1-1.1,1.1l29.9,16.8
						L177.7,225.1z"/>
					<path class="st4" d="M158.4,208.6l-10.9-5c0,0-2.3-1.4-3.8-1.4c-1.7,0-1.7,1.5-1.7,1.5l15.7,9.1L158.4,208.6z"/>
				</g>
				<g>
					<path class="st4" d="M426.1,187.9c0,0-7-9.8-6-13.2c1-3.3,5.3-15.2,5.3-15.2l1.4-2.9c0,0,4.1-0.3,1.1,7.7c-3,8,0.6,4.9,0.6,4.9
						l5.5-6.2l7.3-7.1l2.8-3.5c0,0,1.5-2.1,2.2-2.3c2.3-0.6,1.9,1.3,1.9,1.3l-9.9,14.7l12.8-11.2c0,0,1.9-1.2,2.8-0.5
						c0.9,0.6,0.4,1.1,0.4,1.1l-11.5,16l7.3-5c0,0,1.9-1.1,2.8-0.5c1,0.7,1.3,0.8,1.3,0.8L428.9,190L426.1,187.9z"/>
					<path class="st4" d="M441.1,167.5l9.5-7.3c0,0,1.9-1.9,3.4-2.2c1.7-0.4,2,1,2,1l-13.2,12.4L441.1,167.5z"/>
				</g>
			</g>
			<polygon class="st10" points="338.5,282 383.6,252.6 390.3,239.8 386.8,239 395.2,227.1 421.1,236.2 415.7,257.9 411.8,257.4 
				406.9,269.6 401,271 361.9,324.8 			"/>
			<g>
				<path class="st11" d="M261.9,716.1l0,14.2l-1.6,11.9l-4.5,3.6l-3.5,1.4l-0.9,2.1l-11.6,9.2c-3.2,1.7-7.8,2.9-13.6,2
					c-2-0.3,0.3-5.8,0.9-6.6c3.5-4.9,9-10.4,9-10.4l8.6-12.6l9.6-15.7L261.9,716.1z"/>
				<path class="st11" d="M362.6,731.6l-2.6,5.9l-1.1,6.5L360,754l5.5,0.3l4.1-1.2l2.9,1.7c0,0,15.7,1.7,21.6,1.4
					c9.7-0.5,14.9-1.9,16.6-4c1-1.1-3.7-2.8-5.2-2.9c-8.7-0.6-18.1-5.3-18.1-5.3l-7.7-7.4l-1.8-5.5L362.6,731.6z"/>
				<path class="st12" d="M275.9,284.8l70.7-8.8c0,0,57.5,31.9,43.2,151.9c-0.1,0.6-88.4,18.9-86.8-4.1
					C307.1,366.3,275.9,284.8,275.9,284.8z"/>
				<polygon class="st12" points="295.5,288.8 234.1,253.5 235.8,251 220.2,245.8 198.2,271.3 214.8,284.1 217.6,279.7 222.7,273.1 
					218.3,281.2 233.7,297.9 247.6,300.7 297,342.2 				"/>
				<g>
					<polygon class="st13" points="306.2,425.4 240.6,730.6 263.2,729.9 298,627.1 306,596.4 347.4,474.7 354.7,423.1 					"/>
					<polygon class="st13" points="358.5,732.9 364.5,603.2 353.7,544.8 339.9,464.7 348.2,423.3 389.9,421.8 392.8,453 
						397.8,581.8 398.8,613 385.3,737.6 					"/>
				</g>
				<g>
					<path class="st4" d="M326.4,257.8c2.5,15.9,3.1,24,2.7,25c-2.6,7.4-23.2,3.9-23.1-0.4c0.1-4.4-5.7-22.7-7.2-25.2
						C297.4,254.6,324.9,248.4,326.4,257.8z"/>
					<path class="st5" d="M313.4,252.8c-5.2,0.5-10.2,1.7-12.8,2.8c2.1,4.6,4.3,9.1,6,11.9c4.8,8,13.1,9,18.5,10.2
						c1.2,0.3,2.6,0.3,4,0.1c-0.2-2.8-0.9-8.7-2.8-20.1C325.8,253.5,319.7,252.5,313.4,252.8z"/>
					<path class="st4" d="M319.9,215l18.2,39.1c0,0,4.3,9.3,1.4,12.3c-2.9,3-12.7,6.7-18.2,5.5c-5.4-1.2-13.7-2.2-18.5-10.2
						c-4.8-8-13.3-28.5-13.3-28.5s-0.2-8,14-9.8C317.9,221.6,319.9,215,319.9,215z"/>
					<path class="st14" d="M314.2,206.1c1.9-0.3,5.4-0.3,7.5,2.3c2.1,2.7,1.4,8.5-0.9,10.3c-2.3,1.8-19.1,9.8-21.5,10
						c-2.4,0.2-6.7,1.2-10-1.2c-2.1-1.5,2.1-9,6.4-9.6C306.6,216.3,307,207.4,314.2,206.1z"/>
					<path class="st14" d="M293.7,225.8l7.9,16.9l2.8,9.6l-2,0.9l-3.6,1.7c0,0-16.8-20.4-12.4-25.7
						C290.8,223.9,292.7,224.6,293.7,225.8z"/>
					<path class="st4" d="M303,255c0.7,1.5,0,3.2-1.4,3.9l-1.5,0.7c-1.5,0.7-3.2,0.1-3.9-1.4l-2.9-6.2c-0.7-1.5-0.1-3.2,1.4-3.9
						l1.5-0.7c1.5-0.7,3.2,0,3.9,1.4L303,255z"/>
				</g>
				<path class="st15" d="M326.6,286.3c0,0,37.5,46.2,43.4,105.5c0.5,4.7-3.4,9-3.4,9l-7.8-5.1C358.8,395.8,344.4,330.4,326.6,286.3
					z"/>
				<polygon class="st10" points="326,286 326.9,296.1 305.2,284.3 306,281.6 				"/>
				<polygon class="st10" points="329.5,279.9 335.1,290.5 326.2,285.8 				"/>
			</g>
		</g>
		<g>
			<path class="st16" d="M196.2,30.4l16.5,73.2l0,0c1.5,4.9,6.4,7.9,11.5,6.7c3-0.7,5.3-2.7,6.6-5.3c4.2-8.9,12.3-15.9,22.6-18.3
				c17.8-4,35.4,7.1,39.4,24.9c4,17.8-7.1,35.4-24.9,39.4c-10.4,2.3-20.7-0.5-28.3-6.8c-2.2-1.8-5.2-2.6-8.2-2c-5,1.1-8.3,6-7.5,11
				l0,0l16.5,73.2l-73.5,16.6c-4.7,1.6-7.5,6.4-6.4,11.4c0.7,3,2.7,5.3,5.3,6.6c8.9,4.2,15.9,12.2,18.3,22.6
				c4,17.8-7.1,35.4-24.9,39.4c-17.8,4-35.4-7.1-39.4-24.9c-2.3-10.4,0.5-20.7,6.8-28.3c1.8-2.2,2.6-5.2,2-8.2
				c-1.1-4.9-5.8-8.1-10.7-7.5l-73.6,16.6L0,74.7L196.2,30.4z"/>
			<g>
				<path class="st17" d="M621.2,191.3c-10.3-2.7-18.1-10-22-19.1c-1.2-2.6-3.4-4.7-6.4-5.5c-4.9-1.3-9.8,1.4-11.6,6l-19.2,72.9
					l-194.5-51.1L418.7,0l75.5,19.9c0.4,0.3,0.7,0.6,1,0.9c0,0,0.1,0.1,0.1,0.1c0.3,0.3,0.6,0.7,0.8,1c0,0,0,0.1,0.1,0.1
					c0.5,0.6,0.8,1.3,1.1,2.1c0.1,0.1,0.1,0.2,0.2,0.4c0.1,0.2,0.1,0.5,0.2,0.8c0.1,0.3,0.1,0.6,0.2,0.8c0,0.2,0.1,0.5,0.1,0.7
					c0,0.4,0,0.7,0,1.1c0,0.2,0,0.4,0,0.6c-0.1,0.6-0.1,1.1-0.3,1.7c-0.8,3-2.9,5.3-5.5,6.4c-9.1,3.8-16.4,11.7-19.1,21.9
					c-4.6,17.6,5.9,35.7,23.5,40.3c17.6,4.6,35.7-5.9,40.3-23.5c2.7-10.3,0.2-20.7-5.8-28.5c-1.7-2.3-2.4-5.3-1.7-8.3
					c0.1-0.6,0.4-1.1,0.6-1.6c0.1-0.2,0.2-0.3,0.3-0.5c0.2-0.3,0.4-0.6,0.6-0.9c0.1-0.2,0.3-0.4,0.4-0.6c0.2-0.2,0.4-0.5,0.6-0.6
					c0.2-0.2,0.4-0.4,0.6-0.6c0.1-0.1,0.2-0.2,0.3-0.2c0.6-0.5,1.3-0.9,2-1.3c0,0,0.1,0,0.1,0c0.4-0.2,0.8-0.3,1.2-0.4
					c0.1,0,0.1,0,0.2-0.1c0.4-0.1,0.9-0.2,1.3-0.3l75.5,19.9l-19.2,73c-0.7,4.9,2.3,9.6,7.1,10.9c3,0.8,6,0,8.3-1.7
					c7.8-6,18.2-8.5,28.5-5.8c17.6,4.6,28.1,22.7,23.5,40.3C656.9,185.4,638.8,195.9,621.2,191.3z"/>
				<path class="st17" d="M343.5,118.3c10.3,2.7,20.7,0.2,28.5-5.8c2.3-1.7,5.3-2.4,8.3-1.7c4.9,1.3,7.9,6,7.1,10.9l-19.2,72.9
					l194.5,51.1L614,51.3l-75.5-19.9c-0.5,0.1-0.9,0.2-1.3,0.3c-0.1,0-0.1,0-0.2,0c-0.4,0.1-0.8,0.3-1.2,0.5c0,0-0.1,0-0.1,0
					c-0.7,0.3-1.4,0.8-2,1.3c-0.1,0.1-0.2,0.2-0.3,0.2c-0.2,0.2-0.4,0.4-0.6,0.6c-0.2,0.2-0.4,0.4-0.6,0.6c-0.2,0.2-0.3,0.4-0.4,0.6
					c-0.2,0.3-0.4,0.6-0.6,0.9c-0.1,0.2-0.2,0.3-0.3,0.5c-0.2,0.5-0.4,1-0.6,1.6c-0.8,3-0.1,6,1.7,8.3c6,7.8,8.5,18.2,5.8,28.5
					c-4.6,17.6-22.7,28.1-40.3,23.5c-17.6-4.6-28.1-22.7-23.5-40.3c2.7-10.3,10-18.1,19.1-22c2.6-1.2,4.7-3.4,5.5-6.4
					c0.1-0.6,0.2-1.1,0.3-1.7c0-0.2,0-0.4,0-0.6c0-0.4,0-0.7,0-1.1c0-0.2-0.1-0.5-0.1-0.7c0-0.3-0.1-0.6-0.2-0.8
					c-0.1-0.3-0.1-0.5-0.2-0.8c-0.1-0.1-0.1-0.2-0.2-0.4c-0.3-0.7-0.7-1.4-1.1-2.1c0,0,0-0.1-0.1-0.1c-0.3-0.4-0.5-0.7-0.8-1
					c0,0-0.1-0.1-0.1-0.1c-0.3-0.3-0.6-0.6-1-0.9L419.4,0.2l-19.2,73c-1.8,4.6-6.7,7.3-11.6,6c-3-0.8-5.2-2.9-6.4-5.5
					c-3.9-9.1-11.7-16.4-22-19.1c-17.6-4.6-35.7,5.9-40.3,23.5C315.4,95.7,325.9,113.7,343.5,118.3z"/>
			</g>
		</g>
	</g>
</g>
</svg>
